<svg fill="none" id="sprite-google-play--mobile" viewBox="0 0 136 43"><title>google-play--mobile</title><path d="M131.75 42.5H4.25A4.262 4.262 0 010 38.25v-34A4.262 4.262 0 014.25 0h127.5A4.263 4.263 0 01136 4.25v34a4.263 4.263 0 01-4.25 4.25z" fill="#135"></path><path fill-rule="evenodd" clip-rule="evenodd" d="M10.412 20.825V9.669c0-.638.531-1.169 1.063-1.169.53 0 .743.106 1.062.319L33.043 20.08c.425.213.638.532.638.85 0 .319-.213.638-.638.85L12.537 33.044c-.212.106-.531.319-1.062.319-.532 0-1.063-.532-1.063-1.17V20.826z" fill="url(#a)"></path><path fill-rule="evenodd" clip-rule="evenodd" d="M23.691 20.931L11.26 8.5h.212c.532 0 .744.106 1.063.319l15.087 8.287-3.931 3.825z" fill="url(#b)"></path><path fill-rule="evenodd" clip-rule="evenodd" d="M27.518 24.65l-3.825-3.825 3.932-3.931 5.418 2.975c.425.212.638.531.638.85 0 .319-.213.637-.638.85l-5.525 3.081z" fill="url(#c)"></path><path fill-rule="evenodd" clip-rule="evenodd" d="M11.37 33.15l12.324-12.325 3.825 3.825-14.981 8.181c-.319.212-.531.319-1.169.319.106 0 .106 0 0 0z" fill="url(#d)"></path><path fill-rule="evenodd" clip-rule="evenodd" d="M75.544 36.019c-.531-.425-.956-1.169-1.169-1.594l1.7-.744c.106.213.319.532.531.85.425.425 1.063.85 1.7.85.638 0 1.382-.319 1.806-.85.32-.531.532-1.062.532-1.806v-.638c-1.275 1.594-3.931 1.382-5.419-.318-1.594-1.7-1.594-4.569 0-6.269 1.594-1.594 3.931-1.806 5.313-.319v-.744h1.806v7.97c0 2.018-.744 3.187-1.7 3.93-.638.532-1.594.744-2.444.744-.956-.106-1.913-.425-2.656-1.062zm44.519.425l1.806-4.25-3.188-7.332h1.807l2.231 5.207 2.231-5.206h1.806l-4.887 11.58h-1.806zm-8.607-4.038c-.531-.531-.743-1.275-.743-2.018 0-.638.212-1.276.637-1.7.744-.744 1.806-1.063 2.975-1.063.744 0 1.381.106 1.913.425 0-1.275-1.063-1.806-1.913-1.806-.744 0-1.487.425-1.806 1.169l-1.594-.638c.319-.744 1.169-2.125 3.294-2.125 1.062 0 2.125.319 2.762 1.063.638.743.85 1.593.85 2.762v4.462h-1.806v-.743c-.212.319-.637.531-.956.743-.425.213-.956.32-1.488.32-.637-.107-1.593-.32-2.125-.85zm-56.631-3.825c0-2.125 1.594-4.462 4.462-4.462 2.763 0 4.463 2.337 4.463 4.462 0 2.125-1.594 4.463-4.462 4.463-2.87 0-4.463-2.338-4.463-4.463zm9.563 0c0-2.125 1.593-4.462 4.462-4.462 2.763 0 4.463 2.337 4.463 4.462 0 2.125-1.594 4.463-4.463 4.463-2.762 0-4.462-2.338-4.462-4.463zm-21.57 2.338c-2.655-2.657-2.55-7.013.107-9.775 1.381-1.381 3.081-2.019 4.888-2.019 1.7 0 3.4.637 4.674 1.913l-1.275 1.38c-1.912-1.912-4.993-1.805-6.8.107a5.134 5.134 0 000 7.119c1.913 2.019 5.1 2.125 7.013.106.638-.637.85-1.488.956-2.337H47.92V25.5h6.269c.106.425.106.956.106 1.488 0 1.593-.638 3.187-1.7 4.25-1.169 1.168-2.869 1.806-4.569 1.806-1.913-.106-3.825-.744-5.206-2.125zm44.945.744c-1.594-1.7-1.594-4.57 0-6.375 1.593-1.7 4.25-1.7 5.737 0 .531.53.85 1.274 1.169 2.018l-5.844 2.444a2.267 2.267 0 002.125 1.381c.956 0 1.594-.319 2.231-1.275l1.594 1.063c-.213.212-.425.425-.531.637-1.806 1.806-4.888 1.806-6.481.107zm11.05 1.274V21.145h3.825c2.231 0 4.037 1.594 4.037 3.506 0 1.913-1.594 3.506-3.612 3.506h-2.338v4.675h-1.912v.106zm8.925 0V21.145h1.806v11.794h-1.806zm-24.013-.212V19.55h1.913v13.175h-1.913zm32.406-3.294c-.425-.319-1.062-.425-1.7-.425-1.275 0-2.018.638-2.018 1.381 0 .744.743 1.17 1.487 1.17 1.063 0 2.231-.85 2.231-2.126zm-54.4-.85c0-1.275-.85-2.656-2.444-2.656-1.593 0-2.443 1.381-2.443 2.656 0 1.275.85 2.657 2.444 2.657 1.487 0 2.443-1.382 2.443-2.657zm9.563 0c0-1.275-.85-2.656-2.444-2.656-1.594 0-2.444 1.381-2.444 2.656 0 1.275.85 2.657 2.444 2.657 1.594 0 2.444-1.382 2.444-2.657zm9.456.744c0-.106 0-.212.106-.319v-.956c0-.106-.106-.319-.106-.425-.319-1.063-1.275-1.806-2.231-1.806-1.275 0-2.338 1.275-2.338 2.656 0 1.487 1.063 2.656 2.444 2.656.85.107 1.7-.637 2.125-1.806zm7.756-.956l3.931-1.7c-.424-.744-1.062-.957-1.593-.957-1.594.107-2.55 1.807-2.338 2.657zm16.257-3.613c0-1.062-.85-1.806-2.019-1.806h-2.125v3.719h2.231c1.063 0 1.913-.85 1.913-1.913z" fill="#fff"></path><path fill-rule="evenodd" clip-rule="evenodd" d="M121.442 34.316h-.104v-.104h.104-.104v.104h.104zm.216 0c0-.104 0-.104 0 0-.104-.104-.104-.104 0 0-.104 0-.104 0 0 0zm0-.104c0 .104 0 .104 0 0 0 .104-.104.104 0 0-.104 0 0 0 0 0z" fill="#fff"></path><path fill-rule="evenodd" clip-rule="evenodd" d="M121.76 34.212h-.104.104v.104-.104z" fill="#fff"></path><path d="M41.334 10.731c0-1.912 1.381-3.081 3.081-3.081 1.169 0 1.913.531 2.444 1.275l-.85.531c-.319-.425-.85-.743-1.594-.743-1.169 0-2.018.85-2.018 2.125s.85 2.125 2.018 2.125c.638 0 1.169-.32 1.382-.532v-.956h-1.7v-.956h2.868v2.231c-.531.637-1.381 1.063-2.444 1.063-1.806 0-3.187-1.276-3.187-3.082zm6.906 2.975v-5.95h4.038v.956h-3.081V10.2h2.974v.956h-2.974v1.7h3.08v.957l-4.037-.107zm7.01 0V8.712h-1.807v-.956h4.675v.956h-1.806v4.994H55.25zm6.478 0v-5.95h1.063v5.95h-1.063zm3.932 0V8.712h-1.806v-.956h4.674v.956h-1.806v4.994H65.66zm6.272-2.975c0-1.806 1.275-3.081 3.08-3.081 1.807 0 3.082 1.275 3.082 3.081s-1.275 3.082-3.081 3.082-3.081-1.382-3.081-3.082zm4.993 0c0-1.275-.743-2.125-2.018-2.125-1.17 0-2.02.957-2.02 2.125 0 1.275.745 2.125 2.02 2.125s2.018-.956 2.018-2.125zm6.478 2.975l-3.08-4.25v4.25H79.26v-5.95h1.062l3.081 4.144V7.756h1.063v5.95h-1.063z" fill="#fff"></path></svg>